<?xml version="1.0" encoding="utf-8"?>
<!-- Generator: Adobe Illustrator 21.0.0, SVG Export Plug-In . SVG Version: 6.00 Build 0)  -->
<svg version="1.1" id="图层_1" xmlns="http://www.w3.org/2000/svg" xmlns:xlink="http://www.w3.org/1999/xlink" x="0px" y="0px"
	 viewBox="0 0 1873 936" style="enable-background:new 0 0 1873 936;" xml:space="preserve">
<style type="text/css">
	
		.st0{fill:none;stroke:#AAAAAA;stroke-width:0.3;stroke-linecap:round;stroke-miterlimit:10;stroke-dasharray:5,10;stroke-dashoffset:10;}
	.st1{font-family:'ArialMT';}
	.st2{font-size:9.7135px;}
	.st3{fill:none;stroke:#000000;stroke-linecap:round;stroke-miterlimit:10;}
	.st4{fill:#8FCE00;}
	.st5{font-size:7.2851px;}
	.st6{fill:#CE7E00;}
	.st7{fill:none;stroke:#CE7E00;stroke-linecap:round;stroke-miterlimit:10;}
	.st8{fill:#C90076;}
	.st9{fill:none;stroke:#C90076;stroke-linecap:round;stroke-miterlimit:10;}
	.st10{fill:#0000FF;}
	.st11{fill:none;stroke:#0000FF;stroke-linecap:round;stroke-miterlimit:10;}
	.st12{fill:none;stroke:#744700;stroke-linecap:round;stroke-miterlimit:10;}
	.st13{fill:none;stroke:#8FCE00;stroke-linecap:round;stroke-miterlimit:10;}
	.st14{stroke:#000000;stroke-linecap:round;stroke-miterlimit:10;}
	.st15{fill:#FFFFFF;stroke:#FFFFFF;stroke-linecap:square;stroke-miterlimit:10;}
	.st16{fill:#FFC6FF;stroke:#FFC6FF;stroke-linecap:square;stroke-miterlimit:10;}
	.st17{fill:#FFD6A5;stroke:#FFD6A5;stroke-linecap:square;stroke-miterlimit:10;}
	.st18{fill:#CAFFBF;stroke:#CAFFBF;stroke-linecap:square;stroke-miterlimit:10;}
	.st19{fill:#FDFFB6;stroke:#FDFFB6;stroke-linecap:square;stroke-miterlimit:10;}
	.st20{fill:#FFADAD;stroke:#FFADAD;stroke-linecap:square;stroke-miterlimit:10;}
	.st21{fill:none;stroke:#000000;stroke-linecap:square;stroke-miterlimit:10;}
	.st22{fill:#505050;}
	.st23{font-family:'Arial-BoldMT';}
	.st24{font-size:12px;}
	.st25{fill:none;stroke:#505050;stroke-miterlimit:10;}
</style>
<g id="mainHolder" transform="translate(771.76111,707.96402) rotate(180) scale(1.21419,1.21419)">
	<g id="rangeHolder">
	</g>
	<g id="rangeDatasetHolder">
	</g>
	<g id="pruningHolder">
	</g>
	<g id="treeHolder">
		<g>
			<path class="st0" d="M-305,0h110.4"/>
			<text transform="matrix(-0.8236 0 0 -0.8236 -304.9998 -2.4001)" class="st1 st2">WP 173948573.1</text>
			<path class="st3" d="M-194.6,0h8.2"/>
		</g>
		<g>
			<path class="st0" d="M-304.9,9.2l111.3-3.4"/>
			<text transform="matrix(-0.8232 2.487511e-02 -2.487511e-02 -0.8232 -304.9333 6.8127)" class="st1 st2">WP 081928722.1</text>
			<path class="st3" d="M-193.5,5.8l7.3-0.2"/>
		</g>
		<g>
			<path class="st0" d="M-304.4,18.4l113.7-6.9"/>
			<text transform="matrix(-0.8221 4.972731e-02 -4.972731e-02 -0.8221 -304.588 16.0198)" class="st1 st2">WP 165120372.1</text>
			<path class="st3" d="M-190.8,11.5l1.6-0.1"/>
		</g>
		<g>
			<path class="st0" d="M-303.7,27.6L-189,17.2"/>
			<text transform="matrix(-0.8202 7.453435e-02 -7.453435e-02 -0.8202 -303.9656 25.2117)" class="st1 st2">WP 119815303.1</text>
			<path class="st3" d="M-189,17.2l0.2,0"/>
		</g>
		<g>
			<path class="st0" d="M-302.8,36.8l104-12.6"/>
			<text transform="matrix(-0.8176 9.927338e-02 -9.927338e-02 -0.8176 -303.065 34.3813)" class="st1 st2">WP 163263509.1</text>
			<path class="st3" d="M-198.8,24.1l1.4-0.2"/>
		</g>
		<g>
			<path class="st0" d="M-301.5,45.9L-197,30"/>
			<text transform="matrix(-0.8142 0.1239 -0.1239 -0.8142 -301.8887 43.5188)" class="st1 st2">WP 187451473.1</text>
			<path class="st3" d="M-197,30l0.4-0.1"/>
		</g>
		<g>
			<path class="st0" d="M-300,55l106.1-19.4"/>
			<text transform="matrix(-0.8101 0.1485 -0.1485 -0.8101 -300.4362 52.617)" class="st1 st2">WP 187448565.1</text>
			<path class="st3" d="M-193.9,35.5l2.6-0.5"/>
		</g>
		<g>
			<path class="st0" d="M-298.2,64l94.9-20.4"/>
			<text transform="matrix(-0.8053 0.1729 -0.1729 -0.8053 -298.711 61.6666)" class="st1 st2">WP 056529828.1</text>
			<path class="st3" d="M-203.3,43.6l0.4-0.1"/>
		</g>
		<g>
			<path class="st0" d="M-296.1,73l94.3-23.2"/>
			<text transform="matrix(-0.7997 0.1971 -0.1971 -0.7997 -296.7112 70.6607)" class="st1 st2">WP 020091085.1</text>
			<path class="st3" d="M-201.8,49.7l0.3-0.1"/>
		</g>
		<g>
			<path class="st0" d="M-293.8,81.9l95.7-26.7"/>
			<text transform="matrix(-0.7933 0.2212 -0.2212 -0.7933 -294.4419 79.59)" class="st1 st2">WP 183449113.1</text>
			<path class="st3" d="M-198.1,55.2l49.2-13.7"/>
		</g>
		<g>
			<path class="st0" d="M-291.2,90.7L-188,58.6"/>
			<text transform="matrix(-0.7863 0.245 -0.245 -0.7863 -291.9037 88.4468)" class="st1 st2">MBX6370119.1</text>
			<path class="st3" d="M-188,58.6l24.6-7.7"/>
		</g>
		<g>
			<path class="st0" d="M-288.3,99.5l94.5-32.6"/>
			<text transform="matrix(-0.7785 0.2687 -0.2687 -0.7785 -289.0998 97.2219)" class="st1 st2">MBV8652434.1</text>
			<path class="st3" d="M-193.8,66.9l31.9-11"/>
		</g>
		<g>
			<path class="st0" d="M-285.2,108.2l108.9-41.3"/>
			<text transform="matrix(-0.7701 0.2921 -0.2921 -0.7701 -286.0307 105.9104)" class="st1 st2">MBX6369347.1</text>
			<path class="st3" d="M-176.3,66.9l30.4-11.5"/>
		</g>
		<g>
			<path class="st0" d="M-281.8,116.7l108.7-45"/>
			<text transform="matrix(-0.7609 0.3152 -0.3152 -0.7609 -282.7014 114.5008)" class="st1 st2">HIJ61838.1</text>
			<path class="st3" d="M-173,71.7l33.1-13.7"/>
		</g>
		<g>
			<path class="st0" d="M-278.1,125.2l95.9-43.1"/>
			<text transform="matrix(-0.751 0.338 -0.338 -0.751 -279.114 122.9879)" class="st1 st2">MBI3512478.1</text>
			<path class="st3" d="M-182.3,82l44.1-19.9"/>
		</g>
		<g>
			<path class="st0" d="M-274.2,133.5L-168,81.8"/>
			<text transform="matrix(-0.7405 0.3605 -0.3605 -0.7405 -275.2721 131.3609)" class="st1 st2">MCA9260699.1</text>
			<path class="st3" d="M-168,81.8l56.1-27.3"/>
		</g>
		<g>
			<path class="st0" d="M-270.1,141.7l104.4-54.8"/>
			<text transform="matrix(-0.7293 0.3827 -0.3827 -0.7293 -271.1794 139.6156)" class="st1 st2">NND91918.1</text>
			<path class="st3" d="M-165.6,86.9l16.5-8.7"/>
		</g>
		<g>
			<path class="st0" d="M-265.7,149.8l102.9-58"/>
			<text transform="matrix(-0.7174 0.4046 -0.4046 -0.7174 -266.839 147.7415)" class="st1 st2">WP 088917840.1</text>
			<path class="st3" d="M-162.8,91.8l16.1-9.1"/>
		</g>
		<g>
			<path class="st0" d="M-261,157.8l106.4-64.3"/>
			<text transform="matrix(-0.7048 0.4261 -0.4261 -0.7048 -262.2541 155.7342)" class="st1 st2">MBX2837999.1</text>
			<path class="st3" d="M-154.6,93.5l20.3-12.3"/>
		</g>
		<g>
			<path class="st0" d="M-256.1,165.6L-149,96.3"/>
			<text transform="matrix(-0.6916 0.4472 -0.4472 -0.6916 -257.4323 163.5837)" class="st1 st2">MBX2825278.1</text>
			<path class="st3" d="M-149,96.3l22.9-14.8"/>
		</g>
		<g>
			<path class="st0" d="M-251,173.3l49.5-34.2"/>
			<text transform="matrix(-0.6778 0.4679 -0.4679 -0.6778 -252.0317 171.7785)" class="st4 st1 st5">K-NODE_3319_length_9061_cov_144.058850||full_5</text>
			<path class="st3" d="M-201.5,139.1L-201.5,139.1"/>
		</g>
		<g>
			<path class="st0" d="M-245.7,180.8l48.5-35.7"/>
			<text transform="matrix(-0.6634 0.4881 -0.4881 -0.6634 -247.0846 178.8286)" class="st4 st1 st2">K-k141_1599960||full_5</text>
			<path class="st3" d="M-197.2,145.1L-197.2,145.1"/>
		</g>
		<g>
			<path class="st0" d="M-240.1,188.1l101.2-79.3"/>
			<text transform="matrix(-0.6483 0.5079 -0.5079 -0.6483 -241.5704 186.2099)" class="st1 st2">WP 088639365.1</text>
			<path class="st3" d="M-138.9,108.8L-138.9,108.8"/>
		</g>
		<g>
			<path class="st0" d="M-234.3,195.3l98.6-82.1"/>
			<text transform="matrix(-0.6327 0.5273 -0.5273 -0.6327 -235.837 193.4214)" class="st1 st2">MBO4828055.1</text>
			<path class="st3" d="M-135.7,113.1l0.2-0.2"/>
		</g>
		<g>
			<path class="st0" d="M-228.3,202.3l100.8-89.3"/>
			<text transform="matrix(-0.6165 0.5461 -0.5461 -0.6165 -229.8868 200.4549)" class="st1 st2">WP 051312771.1</text>
			<path class="st3" d="M-127.5,113L-96,85.1"/>
		</g>
		<g>
			<path class="st0" d="M-222.1,209.1l4.5-4.3"/>
			<text transform="matrix(-0.5997 0.5645 -0.5645 -0.5997 -223.7277 207.3072)" class="st1 st2">XP 038768070.1</text>
			<path class="st3" d="M-217.6,204.8l1.1-1.1"/>
		</g>
		<g>
			<path class="st0" d="M-215.7,215.7l5.1-5.1"/>
			<text transform="matrix(-0.5824 0.5824 -0.5824 -0.5824 -217.3649 213.9706)" class="st1 st2">THV48923.1</text>
			<path class="st3" d="M-210.5,210.5l0.4-0.4"/>
		</g>
		<g>
			<path class="st0" d="M-209.1,222.1l4.8-5.1"/>
			<text transform="matrix(-0.5645 0.5997 -0.5997 -0.5645 -210.8026 220.4376)" class="st1 st2">XP 037195175.1</text>
			<path class="st3" d="M-204.3,217l0.3-0.4"/>
		</g>
		<g>
			<path class="st0" d="M-202.3,228.3l5-5.6"/>
			<text transform="matrix(-0.5461 0.6165 -0.6165 -0.5461 -204.0491 226.7048)" class="st1 st2">TGO25619.1</text>
			<path class="st3" d="M-197.3,222.7L-197.3,222.7"/>
		</g>
		<g>
			<path class="st0" d="M-195.3,234.3l3.6-4.4"/>
			<text transform="matrix(-0.5273 0.6327 -0.6327 -0.5273 -197.1086 232.7632)" class="st1 st2">XP 001553752.1</text>
			<path class="st3" d="M-191.6,229.9l1.5-1.8"/>
		</g>
		<g>
			<path class="st0" d="M-188.1,240.1l4.5-5.7"/>
			<text transform="matrix(-0.5079 0.6483 -0.6483 -0.5079 -189.988 238.6106)" class="st1 st2">TGO43270.1</text>
			<path class="st3" d="M-183.6,234.4l0.5-0.6"/>
		</g>
		<g>
			<path class="st0" d="M-180.8,245.7l4.4-6"/>
			<text transform="matrix(-0.4881 0.6634 -0.6634 -0.4881 -182.6951 244.2396)" class="st1 st2">XP 038732534.1</text>
			<path class="st3" d="M-176.3,239.6L-176.3,239.6"/>
		</g>
		<g>
			<path class="st0" d="M-173.3,251l4.1-6"/>
			<text transform="matrix(-0.4679 0.6778 -0.6778 -0.4679 -175.2344 249.6465)" class="st1 st2">TGO70062.1</text>
			<path class="st3" d="M-169.1,245l0.1-0.2"/>
		</g>
		<g>
			<path class="st0" d="M-165.6,256.1l3.8-5.9"/>
			<text transform="matrix(-0.4472 0.6916 -0.6916 -0.4472 -167.615 254.8253)" class="st1 st2">TGO10681.1</text>
			<path class="st3" d="M-161.8,250.3l0.4-0.6"/>
		</g>
		<g>
			<path class="st0" d="M-157.8,261l3.5-5.8"/>
			<text transform="matrix(-0.4261 0.7048 -0.7048 -0.4261 -159.8422 259.7709)" class="st1 st2">KAF7884831.1</text>
			<path class="st3" d="M-154.3,255.2l0.5-0.9"/>
		</g>
		<g>
			<path class="st0" d="M-149.8,265.7l3.7-6.5"/>
			<text transform="matrix(-0.4046 0.7174 -0.7174 -0.4046 -151.9232 264.4811)" class="st1 st2">TGO59780.1</text>
			<path class="st3" d="M-146.1,259.1l0.3-0.4"/>
		</g>
		<g>
			<path class="st0" d="M-141.7,270.1l3-5.7"/>
			<text transform="matrix(-0.3827 0.7293 -0.7293 -0.3827 -143.866 268.9484)" class="st1 st2">XP 038756896.1</text>
			<path class="st3" d="M-138.7,264.3l0.2-0.5"/>
		</g>
		<g>
			<path class="st0" d="M-133.5,274.2l2.9-6.1"/>
			<text transform="matrix(-0.3605 0.7405 -0.7405 -0.3605 -135.6774 273.1703)" class="st1 st2">XP 038815601.1</text>
			<path class="st3" d="M-130.6,268.2l0.1-0.2"/>
		</g>
		<g>
			<path class="st0" d="M-125.2,278.1l3.1-6.8"/>
			<text transform="matrix(-0.338 0.751 -0.751 -0.338 -127.3645 277.1441)" class="st1 st2">KAF7959842.1</text>
			<path class="st3" d="M-122.1,271.3l0.5-1.1"/>
		</g>
		<g>
			<path class="st0" d="M-116.7,281.8l1.9-4.6"/>
			<text transform="matrix(-0.3152 0.7609 -0.7609 -0.3152 -118.9359 280.8652)" class="st1 st2">KAI9647322.1</text>
			<path class="st3" d="M-114.8,277.2l3.7-8.8"/>
		</g>
		<g>
			<path class="st0" d="M-108.2,285.2l4.8-12.6"/>
			<text transform="matrix(-0.2921 0.7701 -0.7701 -0.2921 -110.3975 284.3286)" class="st1 st2">PQE11579.1</text>
			<path class="st3" d="M-103.4,272.6l4.2-11.1"/>
		</g>
		<g>
			<path class="st0" d="M-99.5,288.3l10.2-29.4"/>
			<text transform="matrix(-0.2687 0.7785 -0.7785 -0.2687 -101.7605 287.5342)" class="st1 st2">KAH6888696.1</text>
			<path class="st3" d="M-89.3,258.9l7-20.4"/>
		</g>
		<g>
			<path class="st0" d="M-90.7,291.2l7.8-25.1"/>
			<text transform="matrix(-0.245 0.7863 -0.7863 -0.245 -93.0299 290.4748)" class="st1 st2">WP 189525143.1</text>
			<path class="st3" d="M-82.9,266.1L-82.9,266.1"/>
		</g>
		<g>
			<path class="st0" d="M-81.9,293.8l7.1-25.3"/>
			<text transform="matrix(-0.2212 0.7933 -0.7933 -0.2212 -84.2141 293.1519)" class="st1 st2">OYE02029.1</text>
			<path class="st3" d="M-74.8,268.5L-74.8,268.5"/>
		</g>
		<g>
			<path class="st0" d="M-73,296.1l6-24.3"/>
			<text transform="matrix(-0.1971 0.7997 -0.7997 -0.1971 -75.3217 295.5623)" class="st1 st2">WP 094346528.1</text>
			<path class="st3" d="M-67,271.9l3.3-13.6"/>
		</g>
		<g>
			<path class="st0" d="M-64,298.2l11.2-52.2"/>
			<text transform="matrix(-0.1729 0.8053 -0.8053 -0.1729 -66.3602 297.703)" class="st6 st1 st2">KSD-k141_1226545||full_19</text>
			<path class="st7" d="M-52.8,246l10.5-48.9"/>
		</g>
		<g>
			<path class="st0" d="M-55,300l38.3-209.2"/>
			<text transform="matrix(-0.1485 0.8101 -0.8101 -0.1485 -57.3382 299.5717)" class="st1 st2">MBL1233342.1</text>
			<path class="st3" d="M-16.6,90.8l0.1-0.3"/>
		</g>
		<g>
			<path class="st0" d="M-45.9,301.5l32-210.2"/>
			<text transform="matrix(-0.1239 0.8142 -0.8142 -0.1239 -48.2647 301.1668)" class="st1 st2">MBQ20223.1</text>
			<path class="st3" d="M-13.9,91.3l0.1-0.3"/>
		</g>
		<g>
			<path class="st0" d="M-36.8,302.8l25.6-211.1"/>
			<text transform="matrix(-9.927338e-02 0.8176 -0.8176 -9.927338e-02 -39.1467 302.4861)" class="st1 st2">KJS06915.1</text>
			<path class="st3" d="M-11.1,91.6l0.4-3.5"/>
		</g>
		<g>
			<path class="st0" d="M-27.6,303.7L-8.8,96.5"/>
			<text transform="matrix(-7.453435e-02 0.8202 -0.8202 -7.453435e-02 -29.9927 303.5307)" class="st1 st2">PKP50013.1</text>
			<path class="st3" d="M-8.8,96.5l0.2-2.5"/>
		</g>
		<g>
			<path class="st0" d="M-18.4,304.4L-5.9,96.9"/>
			<text transform="matrix(-4.972742e-02 0.8221 -0.8221 -4.972742e-02 -20.8112 304.2975)" class="st1 st2">NCP45908.1</text>
			<path class="st3" d="M-5.9,96.9l0.2-2.7"/>
		</g>
		<g>
			<path class="st0" d="M-9.2,304.9l5.7-188.2"/>
			<text transform="matrix(-2.487500e-02 0.8232 -0.8232 -2.487500e-02 -11.6111 304.7892)" class="st1 st2">PCJ25845.1</text>
			<path class="st3" d="M-3.5,116.6l0.8-26.8"/>
		</g>
		<g>
			<path class="st0" d="M0,305V104"/>
			<text transform="matrix(5.043061e-17 0.8236 -0.8236 5.043061e-17 -2.4005 304.9992)" class="st1 st2">NQX97324.1</text>
			<path class="st3" d="M0,104V89.9"/>
		</g>
		<g>
			<path class="st0" d="M9.2,304.9L3.4,111.6"/>
			<text transform="matrix(-2.487500e-02 -0.8232 0.8232 -2.487500e-02 12.8882 347.0231)" class="st1 st2">PCI97105.1</text>
			<path class="st3" d="M3.4,111.6L2.6,87"/>
		</g>
		<g>
			<path class="st0" d="M18.4,304.4L6.1,101.3"/>
			<text transform="matrix(-4.972742e-02 -0.8221 0.8221 -4.972742e-02 23.4426 347.8095)" class="st1 st2">PJB15029.1</text>
			<path class="st3" d="M6.1,101.3L5,82.7"/>
		</g>
		<g>
			<path class="st0" d="M27.6,303.7L8.5,93.4"/>
			<text transform="matrix(-7.453435e-02 -0.8202 0.8202 -7.453435e-02 35.1031 359.78)" class="st1 st2">MCO6499517.1</text>
			<path class="st3" d="M8.5,93.4L6.9,75.6"/>
		</g>
		<g>
			<path class="st0" d="M36.8,302.8l-25-205.9"/>
			<text transform="matrix(-9.927338e-02 -0.8176 0.8176 -9.927338e-02 45.7952 357.2376)" class="st8 st1 st2">CAG7581758.1</text>
			<path class="st9" d="M11.8,96.9L7,57.7"/>
		</g>
		<g>
			<path class="st0" d="M45.9,301.5L14.1,92.7"/>
			<text transform="matrix(-0.1239 -0.8142 0.8142 -0.1239 72.1555 458.1325)" class="st10 st1 st2">KSW-cf_coassembly_k141_3795769||full_19</text>
			<path class="st11" d="M14.1,92.7L8.7,57.5"/>
		</g>
		<g>
			<path class="st0" d="M55,300l-2-11.1"/>
			<text transform="matrix(-0.1485 -0.8101 0.8101 -0.1485 67.3588 354.2549)" class="st1 st2">MBR3571819.1</text>
			<path class="st3" d="M52.9,288.9L52.9,288.9"/>
		</g>
		<g>
			<path class="st0" d="M64,298.2l-2.3-10.8"/>
			<text transform="matrix(-0.1729 -0.8053 0.8053 -0.1729 78.1211 352.4946)" class="st1 st2">MBQ3750402.1</text>
			<path class="st3" d="M61.7,287.4l-0.1-0.3"/>
		</g>
		<g>
			<path class="st0" d="M73,296.1l-3.6-14.6"/>
			<text transform="matrix(-0.1971 -0.7997 0.7997 -0.1971 88.6255 349.5414)" class="st1 st2">MBR4919613.1</text>
			<path class="st3" d="M69.4,281.5l-0.4-1.7"/>
		</g>
		<g>
			<path class="st0" d="M81.9,293.8L72,258.2"/>
			<text transform="matrix(-0.2212 -0.7933 0.7933 -0.2212 99.3806 347.5599)" class="st1 st2">MCQ2277451.1</text>
			<path class="st3" d="M72,258.2l-5.2-18.6"/>
		</g>
		<g>
			<path class="st0" d="M90.7,291.2l-9.6-30.8"/>
			<text transform="matrix(-0.245 -0.7863 0.7863 -0.245 109.7014 343.9783)" class="st1 st2">MBQ1570662.1</text>
			<path class="st3" d="M81.1,260.4l-25.6-82.2"/>
		</g>
		<g>
			<path class="st0" d="M99.5,288.3l-3-8.6"/>
			<text transform="matrix(-0.2687 -0.7785 0.7785 -0.2687 120.0412 340.5073)" class="st1 st2">MBQ4009638.1</text>
			<path class="st3" d="M96.5,279.7l-23.6-68.4"/>
		</g>
		<g>
			<path class="st0" d="M108.2,285.2l-2.7-7.1"/>
			<text transform="matrix(-0.2921 -0.7701 0.7701 -0.2921 130.269 336.7269)" class="st1 st2">MBQ3594167.1</text>
			<path class="st3" d="M105.5,278.1L79.3,209"/>
		</g>
		<g>
			<path class="st0" d="M116.7,281.8l-5.1-12.4"/>
			<text transform="matrix(-0.3152 -0.7609 0.7609 -0.3152 140.3802 332.6348)" class="st1 st2">MCR5658915.1</text>
			<path class="st3" d="M111.6,269.4l-30.3-73.1"/>
		</g>
		<g>
			<path class="st0" d="M125.2,278.1l-13.4-29.7"/>
			<text transform="matrix(-0.338 -0.751 0.751 -0.338 149.9998 327.4385)" class="st1 st2">MBP5723286.1</text>
			<path class="st3" d="M111.8,248.4l-31.4-69.8"/>
		</g>
		<g>
			<path class="st0" d="M133.5,274.2l-45.2-92.8"/>
			<text transform="matrix(-0.3605 -0.7405 0.7405 -0.3605 210.4911 428.1944)" class="st10 st1 st5">KSW-T63_2_V_NODE_47_length_32283_cov_43.631563||full_3</text>
			<path class="st11" d="M88.3,181.4l-19.5-40"/>
		</g>
		<g>
			<path class="st0" d="M141.7,270.1L86.9,165.5"/>
			<text transform="matrix(-0.3827 -0.7293 0.7293 -0.3827 218.3142 412.0903)" class="st10 st1 st5">KSW-T63_1_V_NODE_46_length_27681_cov_68.516434_5</text>
			<path class="st11" d="M86.9,165.5l-13.8-26.2"/>
		</g>
		<g>
			<path class="st0" d="M149.8,265.7l-54-95.7"/>
			<text transform="matrix(-0.4046 -0.7174 0.7174 -0.4046 173.9895 303.6054)" class="st1 st2">TVR41845.1</text>
			<path class="st3" d="M95.8,169.9l-25.5-45.2"/>
		</g>
		<g>
			<path class="st0" d="M157.8,261l-60.2-99.5"/>
			<text transform="matrix(-0.4261 -0.7048 0.7048 -0.4261 251.8317 413.0993)" class="st10 st1 st5">KSW-T63_1_V_NODE_253_length_12558_cov_54.923378||full_19</text>
			<path class="st11" d="M97.6,161.5l-2.5-4.1"/>
		</g>
		<g>
			<path class="st0" d="M165.6,256.1L101,156.2"/>
			<text transform="matrix(-0.4472 -0.6916 0.6916 -0.4472 254.7129 390.6416)" class="st10 st1 st5">KSW-T63_1_V_NODE_568_length_8397_cov_38.014505_3</text>
			<path class="st11" d="M101,156.2l-1.2-1.8"/>
		</g>
		<g>
			<path class="st0" d="M173.3,251l-64.7-93.8"/>
			<text transform="matrix(-0.4679 -0.6778 0.6778 -0.4679 240.2331 344.8691)" class="st10 st1 st5">KSW-megahit k141 258865 full full-cat 2 18</text>
			<path class="st11" d="M108.5,157.2l-6.4-9.3"/>
		</g>
		<g>
			<path class="st0" d="M180.8,245.7l-73.4-99.7"/>
			<text transform="matrix(-0.4881 -0.6634 0.6634 -0.4881 274.1579 368.5408)" class="st10 st1 st2">KSW-vf_coassembly_k141_392022||full_19</text>
			<path class="st11" d="M107.4,145.9l-6-8.2"/>
		</g>
		<g>
			<path class="st0" d="M188.1,240.1l-69.4-88.6"/>
			<text transform="matrix(-0.5079 -0.6483 0.6483 -0.5079 223.4551 281.3273)" class="st8 st1 st2">CAB4174734.1</text>
			<path class="st9" d="M118.7,151.5l-28.8-36.7"/>
		</g>
		<g>
			<path class="st0" d="M195.3,234.3l-66.6-79.9"/>
			<text transform="matrix(-0.5273 -0.6327 0.6327 -0.5273 227.0043 268.6348)" class="st1 st2">MBD44995.1</text>
			<path class="st3" d="M128.7,154.4l-7.8-9.4"/>
		</g>
		<g>
			<path class="st0" d="M202.3,228.3L134,151.2"/>
			<text transform="matrix(-0.5461 -0.6165 0.6165 -0.5461 234.424 260.9889)" class="st1 st2">MAZ30850.1</text>
			<path class="st3" d="M134,151.2l-8.7-9.9"/>
		</g>
		<g>
			<path class="st0" d="M209.1,222.1l-63.3-67.2"/>
			<text transform="matrix(-0.5645 -0.5997 0.5997 -0.5645 291.9874 307.5569)" class="st10 st1 st5">KSW-cf_coassembly_k141_1030751||full_53</text>
			<path class="st11" d="M145.8,154.9L115,122.2"/>
		</g>
		<g>
			<path class="st0" d="M215.7,215.7l-74.2-74.2"/>
			<text transform="matrix(-0.5824 -0.5824 0.5824 -0.5824 284.7784 281.3832)" class="st6 st1 st2">KSD-k141_6505323||full_8</text>
			<path class="st7" d="M141.4,141.4l-22.8-22.8"/>
		</g>
		<g>
			<path class="st0" d="M222.1,209.1l-86.9-81.8"/>
			<text transform="matrix(-0.5997 -0.5645 0.5645 -0.5997 317.8634 295.9213)" class="st10 st1 st2">KSW-megahit_k141_749414||full_11</text>
			<path class="st3" d="M135.2,127.3L135.2,127.3"/>
		</g>
		<g>
			<path class="st0" d="M228.3,202.3l-88.8-78.6"/>
			<text transform="matrix(-0.6165 -0.5461 0.5461 -0.6165 304.5775 266.6252)" class="st6 st1 st2">KSD-k141_9572456||full_12</text>
			<path class="st3" d="M139.5,123.6l-0.6-0.5"/>
		</g>
		<g>
			<path class="st0" d="M234.3,195.3l-72.1-60.1"/>
			<text transform="matrix(-0.6327 -0.5273 0.5273 -0.6327 270.6883 222.4656)" class="st1 st2">NBX78092.1</text>
			<path class="st3" d="M162.2,135.2l-31-25.8"/>
		</g>
		<g>
			<path class="st0" d="M240.1,188.1l-92.5-72.5"/>
			<text transform="matrix(-0.6483 -0.5079 0.5079 -0.6483 316.6181 245.0058)" class="st6 st1 st2">KSD-k141_782721||full_54</text>
			<path class="st7" d="M147.6,115.6l-33-25.9"/>
		</g>
		<g>
			<path class="st0" d="M245.7,180.8l-102.1-75.1"/>
			<text transform="matrix(-0.6634 -0.4881 0.4881 -0.6634 323.8741 235.3305)" class="st6 st1 st2">KSD-k141_7891686||full_4</text>
			<path class="st12" d="M143.6,105.7l-0.3-0.2"/>
		</g>
		<g>
			<path class="st0" d="M251,173.3L146.4,101"/>
			<text transform="matrix(-0.6778 -0.4679 0.4679 -0.6778 306.5435 208.6758)" class="st6 st1 st2">KSD-S4C2346_12</text>
			<path class="st3" d="M146.4,101L146.4,101"/>
		</g>
		<g>
			<path class="st0" d="M256.1,165.6L141.3,91.4"/>
			<text transform="matrix(-0.6916 -0.4472 0.4472 -0.6916 296.2739 188.6966)" class="st1 st2">NOX48109.1</text>
			<path class="st3" d="M141.3,91.4l-46-29.8"/>
		</g>
		<g>
			<path class="st0" d="M261,157.8L145,87.7"/>
			<text transform="matrix(-0.7048 -0.4261 0.4261 -0.7048 309.4539 184.2671)" class="st1 st2">MBE0640193.1</text>
			<path class="st3" d="M145,87.7L93.2,56.3"/>
		</g>
		<g>
			<path class="st0" d="M265.7,149.8L175.6,99"/>
			<text transform="matrix(-0.7174 -0.4046 0.4046 -0.7174 305.967 169.8102)" class="st1 st2">NLN84442.1</text>
			<path class="st3" d="M175.6,99l-75.3-42.5"/>
		</g>
		<g>
			<path class="st0" d="M270.1,141.7l-99.6-52.3"/>
			<text transform="matrix(-0.7293 -0.3827 0.3827 -0.7293 312.1324 161.1088)" class="st1 st2">NCD42970.1</text>
			<path class="st3" d="M170.5,89.5l-68.6-36"/>
		</g>
		<g>
			<path class="st0" d="M274.2,133.5l-90.6-44.1"/>
			<text transform="matrix(-0.7405 -0.3605 0.3605 -0.7405 315.2643 150.8334)" class="st1 st2">NLE62363.1</text>
			<path class="st3" d="M183.7,89.4L95.6,46.5"/>
		</g>
		<g>
			<path class="st0" d="M278.1,125.2L162.4,73.1"/>
			<text transform="matrix(-0.751 -0.338 0.338 -0.751 330.2166 145.9871)" class="st1 st2">MBQ2408680.1</text>
			<path class="st3" d="M162.4,73.1L93.4,42"/>
		</g>
		<g>
			<path class="st0" d="M281.8,116.7L167.5,69.4"/>
			<text transform="matrix(-0.7609 -0.3152 0.3152 -0.7609 325.0235 132.0309)" class="st1 st2">NCX05614.1</text>
			<path class="st3" d="M167.5,69.4L94.6,39.2"/>
		</g>
		<g>
			<path class="st0" d="M285.2,108.2l-167-63.3"/>
			<text transform="matrix(-0.7701 -0.2921 0.2921 -0.7701 338.4249 125.7811)" class="st1 st2">MCC6722774.1</text>
			<path class="st3" d="M118.2,44.8l-12-4.5"/>
		</g>
		<g>
			<path class="st0" d="M288.3,99.5L121.7,42"/>
			<text transform="matrix(-0.7785 -0.2687 0.2687 -0.7785 333.6572 112.5987)" class="st1 st2">NUM31537.1</text>
			<path class="st3" d="M121.7,42l-14.4-5"/>
		</g>
		<g>
			<path class="st0" d="M291.2,90.7l-172-53.6"/>
			<text transform="matrix(-0.7863 -0.245 0.245 -0.7863 344.9806 104.9862)" class="st1 st2">MCB9251259.1</text>
			<path class="st3" d="M119.2,37.1l-22.1-6.9"/>
		</g>
		<g>
			<path class="st0" d="M293.8,81.9L106,29.6"/>
			<text transform="matrix(-0.7933 -0.2212 0.2212 -0.7933 347.4225 94.3597)" class="st1 st2">MBC7425611.1</text>
			<path class="st3" d="M106,29.6L79,22"/>
		</g>
		<g>
			<path class="st0" d="M296.1,73L119.4,29.4"/>
			<text transform="matrix(-0.7997 -0.1971 0.1971 -0.7997 349.4006 83.6477)" class="st1 st2">MBL7835917.1</text>
			<path class="st3" d="M119.4,29.4L105,25.9"/>
		</g>
		<g>
			<path class="st0" d="M298.2,64L122.4,26.3"/>
			<text transform="matrix(-0.8053 -0.1729 0.1729 -0.8053 353.4972 73.4274)" class="st1 st2">MCC6818384.1</text>
			<path class="st3" d="M122.4,26.3l-16.7-3.6"/>
		</g>
		<g>
			<path class="st0" d="M300,55L113.3,20.8"/>
			<text transform="matrix(-0.8101 -0.1485 0.1485 -0.8101 348.1119 61.3538)" class="st1 st2">NQW42450.1</text>
			<path class="st3" d="M113.3,20.8l-25.4-4.7"/>
		</g>
		<g>
			<path class="st0" d="M301.5,45.9L122.9,18.7"/>
			<text transform="matrix(-0.8142 -0.1239 0.1239 -0.8142 357.7267 52.0173)" class="st1 st2">MBM3920380.1</text>
			<path class="st3" d="M122.9,18.7l-4-0.6"/>
		</g>
		<g>
			<path class="st0" d="M302.8,36.8L124.3,15.1"/>
			<text transform="matrix(-0.8176 -9.927338e-02 9.927338e-02 -0.8176 359.1346 41.1891)" class="st1 st2">MBM3399809.1</text>
			<path class="st3" d="M124.3,15.1l-4.9-0.6"/>
		</g>
		<g>
			<path class="st0" d="M303.7,27.6l-175-15.9"/>
			<text transform="matrix(-0.8202 -7.453435e-02 7.453435e-02 -0.8202 349.1469 29.3179)" class="st1 st2">NBP04824.1</text>
			<path class="st3" d="M128.8,11.7l-12.1-1.1"/>
		</g>
		<g>
			<path class="st0" d="M304.4,18.4l-186-11.3"/>
			<text transform="matrix(-0.8221 -4.972731e-02 4.972731e-02 -0.8221 359.6404 19.3496)" class="st1 st2">MBS3915109.1</text>
			<path class="st3" d="M118.4,7.2l-14.5-0.9"/>
		</g>
		<g>
			<path class="st0" d="M304.9,9.2L123.3,3.7"/>
			<text transform="matrix(-0.8232 -2.487511e-02 2.487511e-02 -0.8232 360.9435 8.5052)" class="st1 st2">MCC7299212.1</text>
			<path class="st3" d="M123.3,3.7L104,3.1"/>
		</g>
		<g>
			<path class="st0" d="M305,0H121.3"/>
			<text transform="matrix(-0.8236 0 0 -0.8236 360.5939 -2.4001)" class="st1 st2">MBU6323987.1</text>
			<path class="st3" d="M121.3,0H49.7"/>
		</g>
		<g>
			<path class="st11" d="M97.5,155.9l-2.2-3.5 M95.1,157.4c1.6-1,3.2-1.9,4.7-2.9"/>
		</g>
		<g>
			<path class="st11" d="M98.8,150.3l-4.8-7.4 M95.3,152.5c2.3-1.4,4.6-2.9,6.8-4.5"/>
		</g>
		<g>
			<path class="st11" d="M97.7,140.4l-14.4-20.7 M93.9,142.9c2.5-1.7,5-3.4,7.4-5.2"/>
		</g>
		<g>
			<path class="st3" d="M86.6,117.3l-6.6-8.9 M83.3,119.7c2.3-1.6,4.5-3.2,6.6-4.9"/>
		</g>
		<g>
			<path class="st3" d="M76.1,210.2l-3.7-10.3 M72.9,211.3c2.1-0.7,4.2-1.5,6.3-2.3"/>
		</g>
		<g>
			<path class="st3" d="M76.9,198.2l-6-15.5 M72.4,199.9c3-1.1,6-2.3,9-3.5"/>
		</g>
		<g>
			<path class="st3" d="M75.7,180.7L64.5,154 M70.9,182.7c3.2-1.2,6.4-2.6,9.6-4"/>
		</g>
		<g>
			<path class="st3" d="M57.3,288l-1.1-5.4 M52.9,288.9c2.9-0.5,5.8-1.1,8.7-1.7"/>
		</g>
		<g>
			<path class="st3" d="M62.6,281.3L54,242.7 M56.2,282.6c4.3-0.8,8.5-1.8,12.7-2.8"/>
		</g>
		<g>
			<path class="st3" d="M60.4,241.2L45.3,181 M54,242.7c4.3-1,8.5-2,12.7-3.2"/>
		</g>
		<g>
			<path class="st3" d="M50.4,179.6l-5.3-18.9 M45.3,181c3.4-0.9,6.8-1.8,10.2-2.9"/>
		</g>
		<g>
			<path class="st3" d="M54.9,157.7l-9.3-26.8 M45.1,160.7c6.6-1.8,13-4.1,19.3-6.7"/>
		</g>
		<g>
			<path class="st11" d="M71,140.4l-6.4-12.6 M68.9,141.4c1.4-0.7,2.8-1.4,4.2-2.1"/>
		</g>
		<g>
			<path class="st3" d="M67.5,126.3l-2.2-4.1 M64.6,127.8c1.9-1,3.8-2,5.7-3.1"/>
		</g>
		<g>
			<path class="st3" d="M55.6,126.9l-1.5-3.5 M45.6,130.8c6.8-2.4,13.4-5.3,19.7-8.7"/>
		</g>
		<g>
			<path class="st3" d="M67.5,116.7l-3.9-6.7 M54.1,123.5c9.2-4,17.9-9.1,26-15"/>
		</g>
		<g>
			<path class="st3" d="M144.8,103.2L113,80.5 M143.3,105.4c1.1-1.4,2.1-2.9,3.1-4.4"/>
		</g>
		<g>
			<path class="st3" d="M137.1,125.2l-10.9-10 M135.2,127.3c1.3-1.4,2.5-2.7,3.8-4.1"/>
		</g>
		<g>
			<path class="st3" d="M128.8,112.4l-15-13.1 M126.2,115.2c1.7-1.9,3.4-3.9,5.1-5.8"/>
		</g>
		<g>
			<path class="st3" d="M116.8,120.4l-5.1-5.2 M115,122.2c1.2-1.2,2.4-2.3,3.6-3.5"/>
		</g>
		<g>
			<path class="st3" d="M123.1,143.2l-18.5-21.5 M120.9,145.1c1.5-1.2,2.9-2.5,4.3-3.7"/>
		</g>
		<g>
			<path class="st3" d="M108.2,118.5l-6.4-7 M104.6,121.7c2.5-2.1,4.8-4.3,7.2-6.5"/>
		</g>
		<g>
			<path class="st3" d="M107.9,105.5l-3.9-3.8 M101.8,111.5c4.2-3.8,8.2-7.9,11.9-12.2"/>
		</g>
		<g>
			<path class="st3" d="M109.5,95.9l-5.1-4.5 M104,101.7c3.7-3.8,7.2-7.8,10.5-12"/>
		</g>
		<g>
			<path class="st3" d="M108.8,86.1l-9.2-7.3 M104.3,91.4c3-3.5,5.9-7.1,8.6-10.9"/>
		</g>
		<g>
			<path class="st3" d="M83.1,96.1l-8.9-10.3 M63.6,109.9c13.8-8,26.1-18.6,36-31.1"/>
		</g>
		<g>
			<path class="st3" d="M85.6,74.4l-3.4-3 M74.2,85.8c8.1-7,15.2-15.2,21.1-24.2"/>
		</g>
		<g>
			<path class="st3" d="M88,64.1l-10.6-7.7 M82.1,71.4c4.1-4.7,7.8-9.8,11-15.1"/>
		</g>
		<g>
			<path class="st3" d="M101.1,55l-7.7-4.2 M100.3,56.5c0.6-1,1.1-2,1.7-3.1"/>
		</g>
		<g>
			<path class="st3" d="M94.5,48.7l-9.4-4.8 M93.4,50.8c0.8-1.4,1.5-2.8,2.2-4.3"/>
		</g>
		<g>
			<path class="st3" d="M81.5,50.3l-21-13 M77.4,56.4c2.9-4,5.5-8.2,7.7-12.5"/>
		</g>
		<g>
			<path class="st3" d="M94,40.6L65.2,28.2 M93.4,42c0.4-0.9,0.8-1.9,1.2-2.8"/>
		</g>
		<g>
			<path class="st3" d="M63,32.8L24.7,12.9 M60.4,37.3c1.8-2.9,3.4-6,4.8-9.1"/>
		</g>
		<g>
			<path class="st3" d="M103.9,4.7L91.3,4.1 M103.9,6.3c0.1-1,0.1-2.1,0.1-3.1"/>
		</g>
		<g>
			<path class="st3" d="M119.2,16.3l-3.1-0.4 M118.9,18.1c0.2-1.2,0.3-2.4,0.5-3.6"/>
		</g>
		<g>
			<path class="st3" d="M116.4,13.2l-25.6-2.9 M116.1,15.9c0.2-1.8,0.4-3.5,0.6-5.3"/>
		</g>
		<g>
			<path class="st3" d="M91.1,7.2L56.4,4.5 M90.8,10.3c0.2-2.1,0.4-4.1,0.5-6.2"/>
		</g>
		<g>
			<path class="st3" d="M105.3,24.3l-18.3-4.2 M105,25.9c0.3-1.1,0.5-2.1,0.7-3.2"/>
		</g>
		<g>
			<path class="st3" d="M87.5,18.1l-11.1-2.3 M87.1,20.1c0.3-1.3,0.6-2.6,0.8-4"/>
		</g>
		<g>
			<path class="st3" d="M106.8,38.7l-11.2-4.1 M106.2,40.3c0.4-1.1,0.8-2.1,1.2-3.2"/>
		</g>
		<g>
			<path class="st3" d="M96.4,32.4l-18.6-6.3 M95.6,34.6c0.5-1.4,1-2.9,1.5-4.4"/>
		</g>
		<g>
			<path class="st3" d="M78.4,24.1l-3.8-1.2 M77.7,26.2c0.5-1.4,0.9-2.8,1.3-4.1"/>
		</g>
		<g>
			<path class="st3" d="M75.5,19.4l-20.7-5.3 M74.5,22.9c0.7-2.3,1.3-4.7,1.8-7.1"/>
		</g>
		<g>
			<path class="st3" d="M55.9,9.3L49,8.2 M54.8,14.1c0.8-3.1,1.3-6.3,1.6-9.6"/>
		</g>
		<g>
			<path class="st3" d="M49.5,4.1L27.8,2.3 M49,8.2c0.5-2.7,0.7-5.4,0.7-8.2"/>
		</g>
		<g>
			<path class="st3" d="M26.8,7.7L13.4,3.9 M24.7,12.9c1.7-3.3,2.8-6.9,3.1-10.6"/>
		</g>
		<g>
			<path class="st3" d="M7.9,57.6L3.8,27.6 M7,57.7c0.6-0.1,1.2-0.1,1.7-0.2"/>
		</g>
		<g>
			<path class="st3" d="M-1.4,89.8l0-2.8 M-2.7,89.8c0.9,0,1.8,0,2.7,0"/>
		</g>
		<g>
			<path class="st3" d="M0.7,87.1l0-4.2 M-1.3,87c1.3,0,2.6,0,3.9,0"/>
		</g>
		<g>
			<path class="st3" d="M2.8,82.8l-0.2-6.9 M0.6,82.8c1.5,0,2.9-0.1,4.4-0.1"/>
		</g>
		<g>
			<path class="st3" d="M4.7,75.8l-0.6-9.4 M2.6,75.9c1.4,0,2.9-0.1,4.3-0.3"/>
		</g>
		<g>
			<path class="st3" d="M-15.2,90.7l0.5-3.1 M-16.6,90.5c0.9,0.2,1.8,0.3,2.7,0.5"/>
		</g>
		<g>
			<path class="st3" d="M-12.7,87.9L-12,83 M-14.7,87.6c1.3,0.2,2.7,0.4,4,0.6"/>
		</g>
		<g>
			<path class="st3" d="M-7.1,94.1l0.8-10.5 M-8.5,94c0.9,0.1,1.9,0.2,2.8,0.2"/>
		</g>
		<g>
			<path class="st3" d="M-9.2,83.4l1.9-17.3 M-12,83c1.9,0.3,3.8,0.5,5.7,0.6"/>
		</g>
		<g>
			<path class="st3" d="M-1.6,66.5L-1,40.9 M-7.3,66.1c3.8,0.4,7.6,0.5,11.4,0.3"/>
		</g>
		<g>
			<path class="st3" d="M-137.2,110.9l37.4-30.2 M-138.9,108.8c1.1,1.4,2.2,2.8,3.3,4.1"/>
		</g>
		<g>
			<path class="st3" d="M-97.9,82.9l42.5-35.9 M-99.8,80.6c1.2,1.5,2.5,3,3.8,4.4"/>
		</g>
		<g>
			<path class="st13" d="M-199.4,142.1l97.2-69.3 M-201.5,139.1c1.4,2,2.8,4,4.3,6"/>
		</g>
		<g>
			<path class="st3" d="M-147.9,80.5l10-5.5 M-149.1,78.3c0.8,1.5,1.6,3,2.4,4.5"/>
		</g>
		<g>
			<path class="st3" d="M-136.1,78.1l5.9-3.4 M-137.9,75c1.1,2.1,2.3,4.1,3.5,6.2"/>
		</g>
		<g>
			<path class="st3" d="M-128.2,78.2l21.1-12.9 M-130.2,74.8c1.3,2.3,2.7,4.6,4.1,6.8"/>
		</g>
		<g>
			<path class="st3" d="M-104.7,69.1l8.9-5.8 M-107.1,65.3c1.6,2.6,3.2,5.1,5,7.5"/>
		</g>
		<g>
			<path class="st3" d="M-202.2,46.6l51.6-11.9 M-202.9,43.6c0.4,2,0.9,4.1,1.4,6.1"/>
		</g>
		<g>
			<path class="st3" d="M-149.8,38.1l8.7-2.2 M-150.6,34.7c0.5,2.3,1.1,4.5,1.7,6.8"/>
		</g>
		<g>
			<path class="st3" d="M-189,14.3l30.3-2.3 M-189.2,11.4c0.1,1.9,0.3,3.8,0.4,5.7"/>
		</g>
		<g>
			<path class="st3" d="M-186.3,2.8l27.1-0.4 M-186.3,0c0,1.9,0,3.8,0.1,5.6"/>
		</g>
		<g>
			<path class="st3" d="M-159,7.2l6.3-0.3 M-159.2,2.4c0,3.2,0.2,6.4,0.4,9.6"/>
		</g>
		<g>
			<path class="st3" d="M-197.1,27l4.4-0.6 M-197.4,24c0.2,2,0.5,4,0.8,6"/>
		</g>
		<g>
			<path class="st3" d="M-192,30.7l41-6.6 M-192.6,26.3c0.4,2.9,0.9,5.8,1.4,8.7"/>
		</g>
		<g>
			<path class="st3" d="M-152.1,15.6l7.3-0.7 M-152.7,6.9c0.3,5.8,0.8,11.5,1.8,17.2"/>
		</g>
		<g>
			<path class="st3" d="M-143.3,25.4l5.3-0.9 M-144.8,14.8c0.7,7.1,2,14.2,3.7,21.1"/>
		</g>
		<g>
			<path class="st3" d="M-139,60.1l6.9-3 M-139.9,58c0.6,1.4,1.2,2.8,1.8,4.2"/>
		</g>
		<g>
			<path class="st3" d="M-162.7,53.4l14.4-4.7 M-163.5,50.9c0.5,1.6,1.1,3.3,1.6,4.9"/>
		</g>
		<g>
			<path class="st3" d="M-147.2,52l11.5-4.1 M-148.3,48.7c0.7,2.2,1.5,4.5,2.4,6.7"/>
		</g>
		<g>
			<path class="st3" d="M-134,52.6l3.6-1.4 M-135.7,48c1.1,3.1,2.3,6.1,3.6,9.1"/>
		</g>
		<g>
			<path class="st3" d="M-134.8,38l15.1-4.2 M-137.9,24.5c1.6,9.1,4.1,18.1,7.5,26.7"/>
		</g>
		<g>
			<path class="st3" d="M-116.3,44.3l9-3.4 M-119.8,33.8c2,7.1,4.6,14.1,7.9,20.7"/>
		</g>
		<g>
			<path class="st3" d="M-102.2,52.4l37.5-19.2 M-107.3,40.9c3,7.9,6.8,15.4,11.5,22.4"/>
		</g>
		<g>
			<path class="st3" d="M-60.4,40.3l4.4-2.9 M-64.6,33.1c2.5,4.9,5.6,9.6,9.2,13.8"/>
		</g>
		<g>
			<path class="st3" d="M-186.7,231L-186.7,231 M-190.1,228.1c2.3,1.9,4.6,3.8,7,5.6"/>
		</g>
		<g>
			<path class="st3" d="M-200.6,219.7l0.3-0.4 M-203.9,216.6c2.2,2.1,4.4,4.1,6.6,6.1"/>
		</g>
		<g>
			<path class="st3" d="M-213.3,207l0.2-0.2 M-216.4,203.7c2.1,2.2,4.1,4.3,6.3,6.4"/>
		</g>
		<g>
			<path class="st3" d="M-206.8,213.1L-206.8,213.1 M-213.1,206.8c4.2,4.3,8.5,8.5,12.9,12.5"/>
		</g>
		<g>
			<path class="st3" d="M-196.9,222.3L-196.9,222.3 M-206.8,213.1c6.4,6.2,13.2,12.2,20.1,17.8"/>
		</g>
		<g>
			<path class="st3" d="M-172.7,242.3l0.1-0.2 M-176.3,239.6c2.4,1.8,4.9,3.5,7.3,5.2"/>
		</g>
		<g>
			<path class="st3" d="M-167,245.9L-167,245.9 M-172.5,242c3.7,2.6,7.4,5.1,11.1,7.6"/>
		</g>
		<g>
			<path class="st3" d="M-160.4,250.2l0.1-0.2 M-167,245.9c4.3,2.9,8.7,5.8,13.2,8.5"/>
		</g>
		<g>
			<path class="st3" d="M-153.2,254.4L-153.2,254.4 M-160.3,250c4.7,3,9.5,5.9,14.4,8.7"/>
		</g>
		<g>
			<path class="st3" d="M-175.8,239.4L-175.8,239.4 M-196.9,222.3c13.6,12,28.2,22.8,43.8,32.1"/>
		</g>
		<g>
			<path class="st3" d="M-134.5,265.9l0.5-0.9 M-138.5,263.9c2.7,1.4,5.3,2.7,8,4.1"/>
		</g>
		<g>
			<path class="st3" d="M-155.4,253.1l0.3-0.5 M-175.8,239.4c13.2,9.7,27.2,18.3,41.8,25.6"/>
		</g>
		<g>
			<path class="st3" d="M-138.6,261.9l2.8-5.2 M-155.1,252.5c10.8,6.6,22,12.5,33.5,17.7"/>
		</g>
		<g>
			<path class="st3" d="M-123.7,262.8l4.6-9.7 M-135.9,256.7c8.1,4.3,16.3,8.1,24.7,11.6"/>
		</g>
		<g>
			<path class="st3" d="M-109.2,257.5l10.7-25.2 M-119.1,253.1c6.5,3.1,13.2,5.9,19.9,8.4"/>
		</g>
		<g>
			<path class="st3" d="M-90.5,235.5l12.6-32.9 M-98.5,232.3c5.3,2.3,10.7,4.3,16.2,6.2"/>
		</g>
		<g>
			<path class="st3" d="M-78.9,267.3l3.6-12.2 M-82.9,266.1c2.7,0.8,5.4,1.6,8.1,2.4"/>
		</g>
		<g>
			<path class="st3" d="M-69.5,256.8l12.8-47.3 M-75.3,255.1c3.9,1.1,7.7,2.2,11.6,3.1"/>
		</g>
		<g>
			<path class="st3" d="M-67.3,206.3l4.8-14.6 M-77.8,202.6c6.9,2.7,14,5,21.1,6.9"/>
		</g>
		<g>
			<path class="st3" d="M-52.5,194.7l35-129.6 M-62.6,191.7c6.7,2.2,13.4,4,20.3,5.5"/>
		</g>
		<g>
			<path class="st3" d="M-39.3,54.7l15.5-21.5 M-56.1,37.4C-47,51-33.3,60.8-17.6,65.1"/>
		</g>
		<g>
			<path class="st3" d="M-13,38.8l4.1-12.3 M-23.9,33.2C-17.2,38-9.2,40.7-1,40.9"/>
		</g>
		<g>
			<path class="st3" d="M-2.6,27.8l1.3-13.9 M-8.9,26.5c4.1,1.4,8.4,1.8,12.6,1.2"/>
		</g>
		<g>
			<path class="st3" d="M7.9,11.5L0,0 M-1.3,13.9c6.7,0.6,12.8-3.6,14.7-10"/>
		</g>
	</g>
	<g id="scaleHolder">
	</g>
	<g id="bootstrapHolder">
		<circle class="st14" cx="-1.3" cy="53.7" r="2"/>
		<circle class="st14" cx="96.2" cy="22.2" r="2"/>
		<circle class="st14" cx="-142.9" cy="77.8" r="2"/>
		<circle class="st14" cx="81.9" cy="16.9" r="2"/>
		<circle class="st14" cx="78.6" cy="90.9" r="2"/>
		<circle class="st14" cx="65.6" cy="113.3" r="2"/>
		<circle class="st14" cx="-135.6" cy="58.6" r="2"/>
		<circle class="st14" cx="43.9" cy="22.8" r="2"/>
		<circle class="st14" cx="97.6" cy="4.4" r="2"/>
		<circle class="st14" cx="128.9" cy="91.9" r="2"/>
		<circle class="st14" cx="0.6" cy="84.9" r="2"/>
		<circle class="st14" cx="101.2" cy="36.6" r="2"/>
		<circle class="st14" cx="-31.6" cy="44" r="2"/>
		<circle class="st14" cx="47.8" cy="170.2" r="2"/>
		<circle class="st14" cx="-117.7" cy="71.7" r="2"/>
		<circle class="st14" cx="-172.6" cy="242.1" r="2"/>
		<circle class="st14" cx="-150.8" cy="107.5" r="2"/>
		<circle class="st14" cx="121.3" cy="105.8" r="2"/>
		<circle class="st14" cx="-172.7" cy="2.6" r="2"/>
		<circle class="st14" cx="-15" cy="89.2" r="2"/>
		<circle class="st14" cx="105" cy="115" r="2"/>
		<circle class="st14" cx="103.6" cy="11.8" r="2"/>
		<circle class="st14" cx="106.9" cy="93.6" r="2"/>
		<circle class="st14" cx="38.7" cy="3.2" r="2"/>
		<circle class="st14" cx="104.2" cy="82.4" r="2"/>
		<circle class="st14" cx="58.3" cy="262" r="2"/>
		<circle class="st14" cx="-160.4" cy="250.1" r="2"/>
		<circle class="st14" cx="-100.3" cy="66.2" r="2"/>
		<circle class="st14" cx="-84.1" cy="219.1" r="2"/>
		<circle class="st14" cx="131.6" cy="120.2" r="2"/>
		<circle class="st14" cx="65.2" cy="16.7" r="2"/>
		<circle class="st14" cx="-155.5" cy="51" r="2"/>
		<circle class="st14" cx="-137.3" cy="259.3" r="2"/>
		<circle class="st14" cx="70.1" cy="167.4" r="2"/>
		<circle class="st14" cx="-8.2" cy="74.7" r="2"/>
		<circle class="st14" cx="67.8" cy="134.1" r="2"/>
		<circle class="st14" cx="-141.5" cy="50" r="2"/>
		<circle class="st14" cx="2.7" cy="79.3" r="2"/>
		<circle class="st14" cx="5.8" cy="42.6" r="2"/>
		<circle class="st14" cx="-6.7" cy="88.9" r="2"/>
		<circle class="st14" cx="-2" cy="20.8" r="2"/>
		<circle class="st14" cx="-200.4" cy="219.5" r="2"/>
		<circle class="st14" cx="96.4" cy="154.2" r="2"/>
		<circle class="st14" cx="52.9" cy="211.1" r="2"/>
		<circle class="st14" cx="-63.1" cy="233.1" r="2"/>
		<circle class="st14" cx="87" cy="29.3" r="2"/>
		<circle class="st14" cx="-103.9" cy="244.9" r="2"/>
		<circle class="st14" cx="-35" cy="129.9" r="2"/>
		<circle class="st14" cx="-148.4" cy="15.2" r="2"/>
		<circle class="st14" cx="-171.5" cy="27.4" r="2"/>
		<circle class="st14" cx="-127.3" cy="35.9" r="2"/>
		<circle class="st14" cx="82.7" cy="60.2" r="2"/>
		<circle class="st14" cx="-134.3" cy="265.5" r="2"/>
		<circle class="st14" cx="117.6" cy="16.1" r="2"/>
		<circle class="st14" cx="-145.4" cy="37" r="2"/>
		<circle class="st14" cx="70.9" cy="43.8" r="2"/>
		<circle class="st14" cx="-76.7" cy="64.9" r="2"/>
		<circle class="st14" cx="73.8" cy="5.9" r="2"/>
		<circle class="st14" cx="96.3" cy="146.6" r="2"/>
		<circle class="st14" cx="73.9" cy="190.4" r="2"/>
		<circle class="st14" cx="-65" cy="199" r="2"/>
		<circle class="st14" cx="-194.8" cy="26.7" r="2"/>
		<circle class="st14" cx="50.2" cy="144.3" r="2"/>
		<circle class="st14" cx="-121.4" cy="257.9" r="2"/>
		<circle class="st14" cx="-83.4" cy="42.8" r="2"/>
		<circle class="st14" cx="56.8" cy="285.3" r="2"/>
		<circle class="st14" cx="4.4" cy="71.1" r="2"/>
		<circle class="st14" cx="-173.9" cy="13.2" r="2"/>
		<circle class="st14" cx="79.6" cy="34.4" r="2"/>
		<circle class="st14" cx="113.8" cy="132.5" r="2"/>
		<circle class="st14" cx="-12.3" cy="85.5" r="2"/>
		<circle class="st14" cx="-176.4" cy="40.7" r="2"/>
		<circle class="st14" cx="89.8" cy="46.3" r="2"/>
		<circle class="st14" cx="-77.1" cy="261.2" r="2"/>
		<circle class="st14" cx="-111.8" cy="42.6" r="2"/>
		<circle class="st14" cx="90.5" cy="130" r="2"/>
		<circle class="st14" cx="-118.5" cy="95.7" r="2"/>
		<circle class="st14" cx="-155.9" cy="7.1" r="2"/>
		<circle class="st14" cx="-140.6" cy="24.9" r="2"/>
	</g>
	<g id="branchlengthHolder">
	</g>
	<g id="branchIDHolder">
	</g>
	<g id="datasetHolder">
		<g>
			<path class="st15" d="M398.4,284l26.1,18.6c3-4.3,6-8.6,8.9-13l-26.6-17.8C404.1,275.9,401.3,280,398.4,284"/>
			<path class="st15" d="M380.6,307.5l24.9,20.1c3.3-4.1,6.5-8.2,9.7-12.4l-25.5-19.4C386.7,299.8,383.7,303.7,380.6,307.5"/>
			<path class="st15" d="M220.8,436.6l14.4,28.6c4.7-2.4,9.3-4.8,13.9-7.3l-15.3-28.1C229.6,432.1,225.2,434.4,220.8,436.6"/>
			<path class="st15" d="M284,398.4l18.6,26.1c4.3-3,8.5-6.2,12.7-9.3l-19.4-25.5C292,392.7,288,395.6,284,398.4"/>
			<path class="st15" d="M330,361.3l21.6,23.6c3.9-3.5,7.7-7.1,11.5-10.8l-22.3-23C337.2,354.6,333.6,358,330,361.3"/>
			<path class="st15" d="M66.3,484.8l4.3,31.7c5.2-0.7,10.4-1.5,15.6-2.4l-5.3-31.6C76.1,483.4,71.2,484.1,66.3,484.8"/>
			<path class="st15" d="M271.8,406.8l17.8,26.6c4.4-2.9,8.7-5.9,13-8.9L284,398.4C280,401.3,275.9,404.1,271.8,406.8"/>
			<path class="st15" d="M207.5,443.1l13.6,29c4.8-2.2,9.5-4.5,14.2-6.9l-14.4-28.6C216.4,438.9,212,441,207.5,443.1"/>
			<path class="st15" d="M246.8,422.5l16.1,27.6c4.5-2.6,9-5.4,13.5-8.1l-17-27.1C255.3,417.5,251,420,246.8,422.5"/>
			<path class="st15" d="M295.9,389.7l19.4,25.5c4.2-3.2,8.3-6.4,12.4-9.7l-20.1-24.9C303.7,383.7,299.8,386.7,295.9,389.7"/>
			<path class="st15" d="M389.7,295.9l25.5,19.4c3.2-4.2,6.3-8.4,9.3-12.7L398.4,284C395.6,288,392.7,292,389.7,295.9"/>
			<path class="st15" d="M340.7,351.2l22.3,23c3.8-3.7,7.5-7.4,11.1-11.1l-23-22.3C347.7,344.3,344.3,347.7,340.7,351.2"/>
			<path class="st15" d="M361.3,330l23.6,21.6c3.5-3.9,7-7.8,10.4-11.8l-24.3-20.9C367.9,322.6,364.6,326.3,361.3,330"/>
			<path class="st15" d="M259.4,414.9l17,27.1c4.5-2.8,8.9-5.6,13.2-8.5l-17.8-26.6C267.7,409.6,263.6,412.3,259.4,414.9"/>
			<path class="st15" d="M351.2,340.7l23,22.3c3.7-3.8,7.3-7.6,10.8-11.5L361.3,330C358,333.6,354.6,337.2,351.2,340.7"/>
			<path class="st15" d="M-398.4,284l-26.1,18.6c3,4.3,6.2,8.5,9.3,12.7l25.5-19.4C-392.7,292-395.6,288-398.4,284"/>
			<path class="st15" d="M-406.8,271.8l-26.6,17.8c2.9,4.4,5.9,8.7,8.9,13l26.1-18.6C-401.3,280-404.1,275.9-406.8,271.8"/>
			<path class="st15" d="M51.6,486.6l3.4,31.8c5.2-0.6,10.4-1.2,15.6-1.9l-4.3-31.7C61.4,485.5,56.5,486.1,51.6,486.6"/>
			<path class="st16" d="M-380.6,307.5l-24.9,20.1c3.3,4.1,6.7,8.1,10.1,12.1l24.3-20.9C-374.3,315.2-377.5,311.4-380.6,307.5"/>
			<path class="st16" d="M-389.7,295.9l-25.5,19.4c3.2,4.2,6.4,8.3,9.7,12.4l24.9-20.1C-383.7,303.7-386.7,299.8-389.7,295.9"/>
			<path class="st16" d="M-449.2,194.1l-29.4,12.7c2.1,4.8,4.2,9.6,6.5,14.4l29-13.6C-445.2,203.1-447.2,198.6-449.2,194.1"/>
			<path class="st16" d="M-443.1,207.5l-29,13.6c2.2,4.8,4.5,9.5,6.9,14.2l28.6-14.4C-438.9,216.4-441,212-443.1,207.5"/>
			<path class="st16" d="M-124.3,473.3l-8.1,31c5.1,1.3,10.2,2.6,15.3,3.8l7.2-31.2C-114.7,475.7-119.5,474.5-124.3,473.3"/>
			<path class="st16" d="M-138.5,469.3l-9.1,30.7c5,1.5,10.1,2.9,15.2,4.2l8.1-31C-129,472-133.8,470.7-138.5,469.3"/>
			<path class="st16" d="M-152.6,464.9l-10,30.4c5,1.6,10,3.2,15,4.7l9.1-30.7C-143.2,467.9-147.9,466.4-152.6,464.9"/>
			<path class="st16" d="M449.2,194.1l29.4,12.7c2.1-4.8,4.1-9.7,6-14.5l-29.7-11.8C453,185,451.1,189.5,449.2,194.1"/>
			<path class="st16" d="M371.1,318.9l24.3,20.9c3.4-4,6.8-8,10.1-12.1l-24.9-20.1C377.5,311.4,374.3,315.2,371.1,318.9"/>
			<path class="st16" d="M443.1,207.5l29,13.6c2.2-4.8,4.4-9.5,6.5-14.4l-29.4-12.7C447.2,198.6,445.2,203.1,443.1,207.5"/>
			<path class="st16" d="M138.5,469.3l9.1,30.7c5-1.5,10-3,15-4.7l-10-30.4C147.9,466.4,143.2,467.9,138.5,469.3"/>
			<path class="st16" d="M422.5,246.8l27.6,16.1c2.6-4.5,5.2-9.1,7.7-13.7l-28.1-15.3C427.4,238.2,425,242.5,422.5,246.8"/>
			<path class="st16" d="M406.8,271.8l26.6,17.8c2.9-4.4,5.8-8.8,8.5-13.2l-27.1-17C412.3,263.6,409.6,267.7,406.8,271.8"/>
			<path class="st15" d="M-109.9,476.8l-7.2,31.2c5.1,1.2,10.2,2.3,15.4,3.3l6.2-31.4C-100.3,478.9-105.1,477.9-109.9,476.8"/>
			<path class="st17" d="M-414.9,259.4l-27.1,17c2.8,4.5,5.6,8.9,8.5,13.2l26.6-17.8C-409.6,267.7-412.3,263.6-414.9,259.4"/>
			<path class="st17" d="M-422.5,246.8l-27.6,16.1c2.6,4.5,5.4,9,8.1,13.5l27.1-17C-417.5,255.3-420,251-422.5,246.8"/>
			<path class="st17" d="M-429.8,233.9l-28.1,15.3c2.5,4.6,5.1,9.2,7.7,13.7l27.6-16.1C-425,242.5-427.4,238.2-429.8,233.9"/>
			<path class="st17" d="M-436.6,220.8l-28.6,14.4c2.4,4.7,4.8,9.3,7.3,13.9l28.1-15.3C-432.1,229.6-434.4,225.2-436.6,220.8"/>
			<path class="st18" d="M-371.1,318.9l-24.3,20.9c3.4,4,6.9,7.9,10.4,11.8l23.6-21.6C-364.6,326.3-367.9,322.6-371.1,318.9"/>
			<path class="st18" d="M479.9,95.5l31.4,6.2c1-5.1,2-10.3,2.8-15.5l-31.6-5.3C481.8,85.8,480.9,90.6,479.9,95.5"/>
			<path class="st18" d="M-7.4,489.2l-0.5,32c5.2,0.1,10.5,0.1,15.7,0l-0.5-32C2.5,489.3-2.5,489.3-7.4,489.2"/>
			<path class="st18" d="M7.4,489.2l0.5,32c5.2-0.1,10.5-0.2,15.7-0.5l-1.4-32C17.2,489,12.3,489.2,7.4,489.2"/>
			<path class="st18" d="M-22.2,488.8l-1.4,32c5.2,0.2,10.5,0.4,15.7,0.5l0.5-32C-12.3,489.2-17.2,489-22.2,488.8"/>
			<path class="st18" d="M-80.9,482.6l-5.3,31.6c5.2,0.9,10.4,1.7,15.6,2.4l4.3-31.7C-71.2,484.1-76.1,483.4-80.9,482.6"/>
			<path class="st18" d="M-66.3,484.8l-4.3,31.7c5.2,0.7,10.4,1.3,15.6,1.9l3.4-31.8C-56.5,486.1-61.4,485.5-66.3,484.8"/>
			<path class="st18" d="M-95.5,479.9l-6.2,31.4c5.1,1,10.3,2,15.5,2.8l5.3-31.6C-85.8,481.8-90.6,480.9-95.5,479.9"/>
			<path class="st18" d="M22.2,488.8l1.4,32c5.2-0.2,10.5-0.6,15.7-1l-2.4-31.9C32,488.3,27.1,488.6,22.2,488.8"/>
			<path class="st18" d="M36.9,487.9l2.4,31.9c5.2-0.4,10.5-0.9,15.7-1.4l-3.4-31.8C46.7,487.1,41.8,487.5,36.9,487.9"/>
			<path class="st18" d="M-36.9,487.9l-2.4,31.9c5.2,0.4,10.5,0.7,15.7,1l1.4-32C-27.1,488.6-32,488.3-36.9,487.9"/>
			<path class="st18" d="M-51.6,486.6l-3.4,31.8c5.2,0.6,10.4,1,15.7,1.4l2.4-31.9C-41.8,487.5-46.7,487.1-51.6,486.6"/>
			<path class="st18" d="M464.9,152.6l30.4,10c1.6-5,3.2-10,4.7-15l-30.7-9.1C467.9,143.2,466.4,147.9,464.9,152.6"/>
			<path class="st18" d="M469.3,138.5l30.7,9.1c1.5-5,2.9-10.1,4.2-15.2l-31-8.1C472,129,470.7,133.8,469.3,138.5"/>
			<path class="st18" d="M194.1,449.2l12.7,29.4c4.8-2.1,9.6-4.2,14.4-6.5l-13.6-29C203.1,445.2,198.6,447.2,194.1,449.2"/>
			<path class="st18" d="M476.8,109.9l31.2,7.2c1.2-5.1,2.3-10.2,3.3-15.4l-31.4-6.2C478.9,100.3,477.9,105.1,476.8,109.9"/>
			<path class="st18" d="M488.8,22.2l32,1.4c0.2-5.2,0.4-10.5,0.5-15.7l-32-0.5C489.2,12.3,489,17.2,488.8,22.2"/>
			<path class="st18" d="M487.9,36.9l31.9,2.4c0.4-5.2,0.7-10.5,1-15.7l-32-1.4C488.6,27.1,488.3,32,487.9,36.9"/>
			<path class="st18" d="M486.6,51.6l31.8,3.4c0.6-5.2,1-10.4,1.4-15.7l-31.9-2.4C487.5,41.8,487.1,46.7,486.6,51.6"/>
			<path class="st18" d="M484.8,66.3l31.7,4.3c0.7-5.2,1.3-10.4,1.9-15.6l-31.8-3.4C486.1,56.5,485.5,61.4,484.8,66.3"/>
			<path class="st18" d="M429.8,233.9l28.1,15.3c2.5-4.6,4.9-9.3,7.3-13.9l-28.6-14.4C434.4,225.2,432.1,229.6,429.8,233.9"/>
			<path class="st18" d="M166.6,460.1l10.9,30.1c4.9-1.8,9.8-3.6,14.7-5.6l-11.8-29.7C175.8,456.7,171.2,458.4,166.6,460.1"/>
			<path class="st18" d="M152.6,464.9l10,30.4c5-1.6,9.9-3.3,14.9-5.1l-10.9-30.1C161.9,461.8,157.3,463.4,152.6,464.9"/>
			<path class="st18" d="M473.3,124.3l31,8.1c1.3-5.1,2.6-10.2,3.8-15.3l-31.2-7.2C475.7,114.7,474.5,119.5,473.3,124.3"/>
			<path class="st18" d="M460.1,166.6l30.1,10.9c1.8-4.9,3.5-9.9,5.1-14.9l-30.4-10C463.4,157.3,461.8,161.9,460.1,166.6"/>
			<path class="st18" d="M454.8,180.4l29.7,11.8c1.9-4.9,3.8-9.8,5.6-14.7l-30.1-10.9C458.4,171.2,456.7,175.8,454.8,180.4"/>
			<path class="st18" d="M180.4,454.8l11.8,29.7c4.9-1.9,9.7-3.9,14.5-6l-12.7-29.4C189.5,451.1,185,453,180.4,454.8"/>
			<path class="st18" d="M489.2,7.4l32,0.5c0.1-5.2,0.1-10.5,0-15.7l-32,0.5C489.3-2.5,489.3,2.5,489.2,7.4"/>
			<path class="st18" d="M95.5,479.9l6.2,31.4c5.1-1,10.3-2.1,15.4-3.3l-7.2-31.2C105.1,477.9,100.3,478.9,95.5,479.9"/>
			<path class="st18" d="M80.9,482.6l5.3,31.6c5.2-0.9,10.3-1.8,15.5-2.8l-6.2-31.4C90.6,480.9,85.8,481.8,80.9,482.6"/>
			<path class="st18" d="M109.9,476.8l7.2,31.2c5.1-1.2,10.2-2.4,15.3-3.8l-8.1-31C119.5,474.5,114.7,475.7,109.9,476.8"/>
			<path class="st18" d="M124.3,473.3l8.1,31c5.1-1.3,10.1-2.7,15.2-4.2l-9.1-30.7C133.8,470.7,129,472,124.3,473.3"/>
			<path class="st18" d="M436.6,220.8l28.6,14.4c2.4-4.7,4.7-9.4,6.9-14.2l-29-13.6C441,212,438.9,216.4,436.6,220.8"/>
			<path class="st18" d="M414.9,259.4l27.1,17c2.8-4.5,5.5-8.9,8.1-13.5l-27.6-16.1C420,251,417.5,255.3,414.9,259.4"/>
			<path class="st18" d="M318.9,371.1l20.9,24.3c4-3.4,7.9-6.9,11.8-10.4L330,361.3C326.3,364.6,322.6,367.9,318.9,371.1"/>
			<path class="st18" d="M307.5,380.6l20.1,24.9c4.1-3.3,8.1-6.7,12.1-10.1l-20.9-24.3C315.2,374.3,311.4,377.5,307.5,380.6"/>
			<path class="st18" d="M233.9,429.8l15.3,28.1c4.6-2.5,9.2-5.1,13.7-7.7l-16.1-27.6C242.5,425,238.2,427.4,233.9,429.8"/>
			<path class="st19" d="M-180.4,454.8l-11.8,29.7c4.9,1.9,9.8,3.8,14.7,5.6l10.9-30.1C-171.2,458.4-175.8,456.7-180.4,454.8"/>
			<path class="st19" d="M-307.5,380.6l-20.1,24.9c4.1,3.3,8.2,6.5,12.4,9.7l19.4-25.5C-299.8,386.7-303.7,383.7-307.5,380.6"/>
			<path class="st19" d="M-318.9,371.1l-20.9,24.3c4,3.4,8,6.8,12.1,10.1l20.1-24.9C-311.4,377.5-315.2,374.3-318.9,371.1"/>
			<path class="st19" d="M-194.1,449.2l-12.7,29.4c4.8,2.1,9.7,4.1,14.5,6l11.8-29.7C-185,453-189.5,451.1-194.1,449.2"/>
			<path class="st19" d="M-166.6,460.1l-10.9,30.1c4.9,1.8,9.9,3.5,14.9,5.1l10-30.4C-157.3,463.4-161.9,461.8-166.6,460.1"/>
			<path class="st19" d="M-246.8,422.5l-16.1,27.6c4.5,2.6,9.1,5.2,13.7,7.7l15.3-28.1C-238.2,427.4-242.5,425-246.8,422.5"/>
			<path class="st19" d="M-207.5,443.1l-13.6,29c4.8,2.2,9.5,4.4,14.4,6.5l12.7-29.4C-198.6,447.2-203.1,445.2-207.5,443.1"/>
			<path class="st19" d="M-351.2,340.7l-23,22.3c3.7,3.8,7.4,7.5,11.1,11.1l22.3-23C-344.3,347.7-347.7,344.3-351.2,340.7"/>
			<path class="st19" d="M-330,361.3l-21.6,23.6c3.9,3.5,7.8,7,11.8,10.4l20.9-24.3C-322.6,367.9-326.3,364.6-330,361.3"/>
			<path class="st19" d="M-284,398.4l-18.6,26.1c4.3,3,8.6,6,13,8.9l17.8-26.6C-275.9,404.1-280,401.3-284,398.4"/>
			<path class="st19" d="M-340.7,351.2l-22.3,23c3.8,3.7,7.6,7.3,11.5,10.8l21.6-23.6C-333.6,358-337.2,354.6-340.7,351.2"/>
			<path class="st19" d="M-361.3,330l-23.6,21.6c3.5,3.9,7.1,7.7,10.8,11.5l23-22.3C-354.6,337.2-358,333.6-361.3,330"/>
			<path class="st19" d="M-259.4,414.9l-17,27.1c4.5,2.8,8.9,5.5,13.5,8.1l16.1-27.6C-251,420-255.3,417.5-259.4,414.9"/>
			<path class="st19" d="M-271.8,406.8l-17.8,26.6c4.4,2.9,8.8,5.8,13.2,8.5l17-27.1C-263.6,412.3-267.7,409.6-271.8,406.8"/>
			<path class="st19" d="M-295.9,389.7l-19.4,25.5c4.2,3.2,8.4,6.3,12.7,9.3l18.6-26.1C-288,395.6-292,392.7-295.9,389.7"/>
			<path class="st19" d="M-220.8,436.6l-14.4,28.6c4.7,2.4,9.4,4.7,14.2,6.9l13.6-29C-212,441-216.4,438.9-220.8,436.6"/>
			<path class="st19" d="M-233.9,429.8l-15.3,28.1c4.6,2.5,9.3,4.9,13.9,7.3l14.4-28.6C-225.2,434.4-229.6,432.1-233.9,429.8"/>
			<path class="st20" d="M-464.9,152.6l-30.4,10c1.6,5,3.3,9.9,5.1,14.9l30.1-10.9C-461.8,161.9-463.4,157.3-464.9,152.6"/>
			<path class="st20" d="M-473.3,124.3l-31,8.1c1.3,5.1,2.7,10.1,4.2,15.2l30.7-9.1C-470.7,133.8-472,129-473.3,124.3"/>
			<path class="st20" d="M-487.9,36.9l-31.9,2.4c0.4,5.2,0.9,10.5,1.4,15.7l31.8-3.4C-487.1,46.7-487.5,41.8-487.9,36.9"/>
			<path class="st20" d="M-488.8,22.2l-32,1.4c0.2,5.2,0.6,10.5,1,15.7l31.9-2.4C-488.3,32-488.6,27.1-488.8,22.2"/>
			<path class="st20" d="M-489.2,7.4l-32,0.5c0.1,5.2,0.2,10.5,0.5,15.7l32-1.4C-489,17.2-489.2,12.3-489.2,7.4"/>
			<path class="st20" d="M-460.1,166.6l-30.1,10.9c1.8,4.9,3.6,9.8,5.6,14.7l29.7-11.8C-456.7,175.8-458.4,171.2-460.1,166.6"/>
			<path class="st20" d="M-489.2-7.4l-32-0.5c-0.1,5.2-0.1,10.5,0,15.7l32-0.5C-489.3,2.5-489.3-2.5-489.2-7.4"/>
			<path class="st20" d="M-476.8,109.9l-31.2,7.2c1.2,5.1,2.4,10.2,3.8,15.3l31-8.1C-474.5,119.5-475.7,114.7-476.8,109.9"/>
			<path class="st20" d="M-479.9,95.5l-31.4,6.2c1,5.1,2.1,10.3,3.3,15.4l31.2-7.2C-477.9,105.1-478.9,100.3-479.9,95.5"/>
			<path class="st20" d="M-482.6,80.9l-31.6,5.3c0.9,5.2,1.8,10.3,2.8,15.5l31.4-6.2C-480.9,90.6-481.8,85.8-482.6,80.9"/>
			<path class="st20" d="M-484.8,66.3l-31.7,4.3c0.7,5.2,1.5,10.4,2.4,15.6l31.6-5.3C-483.4,76.1-484.1,71.2-484.8,66.3"/>
			<path class="st20" d="M-486.6,51.6l-31.8,3.4c0.6,5.2,1.2,10.4,1.9,15.6l31.7-4.3C-485.5,61.4-486.1,56.5-486.6,51.6"/>
			<path class="st20" d="M-454.8,180.4l-29.7,11.8c1.9,4.9,3.9,9.7,6,14.5l29.4-12.7C-451.1,189.5-453,185-454.8,180.4"/>
			<path class="st20" d="M-469.3,138.5l-30.7,9.1c1.5,5,3,10,4.7,15l30.4-10C-466.4,147.9-467.9,143.2-469.3,138.5"/>
			<path class="st20" d="M482.6,80.9l31.6,5.3c0.9-5.2,1.7-10.4,2.4-15.6l-31.7-4.3C484.1,71.2,483.4,76.1,482.6,80.9"/>
			<path class="st21" d="M489.2-7.4c2.7,176.6-90,340.8-242.5,429.9s-341.1,89.1-493.6,0S-491.9,169.2-489.2-7.4 M521.2-7.9
				c2.8,188.1-95.9,363.1-258.3,458s-363.4,94.9-525.8,0s-261.2-269.9-258.3-458"/>
		</g>
	</g>
</g>
<g id="wrapperHolder">
	<g>
		<text transform="matrix(1 0 0 1 70 62)" class="st22 st23 st24">Tree scale: 1</text>
		<path class="st25" d="M152.1,58.4h87.2"/>
		<path class="st25" d="M152.1,55.4v6 M239.3,55.4v6 M195.7,58.4v2"/>
	</g>
</g>
<g id="legendHolder">
</g>
</svg>
